<svg width="47" height="48" viewBox="0 0 47 48" fill="none" xmlns="http://www.w3.org/2000/svg">
<path d="M45.623 21.031H44.2301L40.4958 2.07202C40.3687 1.42659 39.8028 0.961182 39.1448 0.961182H32.764C32.1061 0.961182 31.5402 1.42659 31.4131 2.07202L27.6788 21.031H24.9799V11.2432C24.9799 10.0191 23.4927 9.40209 22.627 10.2718L13.867 19.0727V11.2432C13.867 10.0192 12.3798 9.402 11.5142 10.2718L0.405742 21.4321C0.140725 21.6958 0 22.0581 0 22.408V46.5842C0 47.3447 0.616508 47.9612 1.37695 47.9612H45.623C46.3835 47.9612 47 47.3447 47 46.5842V22.408C47 21.6475 46.3835 21.031 45.623 21.031ZM33.8963 3.71509H38.0127L41.4233 21.031H30.4857L33.8963 3.71509ZM22.226 21.031H15.8034L22.226 14.5784V21.031ZM11.1131 21.031H4.69055L11.1131 14.5784V21.031ZM33.172 45.2073V31.0108H38.737V45.2073H33.172ZM44.2461 45.2073H41.4909V29.6338C41.4909 28.8734 40.8744 28.2569 40.1139 28.2569H31.795C31.0346 28.2569 30.4181 28.8734 30.4181 29.6338V45.2073H2.75391V23.7849H44.2461V45.2073Z" fill="#101D23"/>
</svg>
