<svg width="12" height="12" viewBox="0 0 12 12" fill="none" xmlns="http://www.w3.org/2000/svg">
<path fill-rule="evenodd" clip-rule="evenodd" d="M5.25 0C2.35051 0 0 2.35051 0 5.25C0 8.1495 2.35051 10.5 5.25 10.5C6.48959 10.5 7.62884 10.0704 8.52698 9.35194L11.0833 11.9083L11.9083 11.0833L9.35194 8.52698C10.0704 7.62884 10.5 6.48959 10.5 5.25C10.5 2.35051 8.1495 0 5.25 0ZM1.16667 5.25C1.16667 2.99484 2.99484 1.16667 5.25 1.16667C7.50516 1.16667 9.33333 2.99484 9.33333 5.25C9.33333 7.50516 7.50516 9.33333 5.25 9.33333C2.99484 9.33333 1.16667 7.50516 1.16667 5.25Z" fill="#101D23"/>
</svg>
