<svg width="16" height="16" viewBox="0 0 16 16" fill="none" xmlns="http://www.w3.org/2000/svg">
<path fill-rule="evenodd" clip-rule="evenodd" d="M3.10261 7.2043C4.8081 9.28879 6.71726 11.1979 8.80175 12.9034L9.34154 13.3451C10.2362 14.0771 11.5399 14.012 12.3573 13.1947L13.6195 11.9325L11.233 9.54597L9.24431 11.5347L4.46294 6.75334L6.4583 4.77123L4.07359 2.38652L2.81138 3.64873C1.994 4.4661 1.92898 5.76986 2.66096 6.6645L3.10261 7.2043ZM7.85189 14.0644C5.6902 12.2957 3.71033 10.3158 1.94167 8.15415L1.50003 7.61436C0.28005 6.12328 0.388426 3.95036 1.75072 2.58807L4.07359 0.265198L8.58316 4.77477L6.5878 6.75688L9.24431 9.41339L11.233 7.42465L15.7408 11.9325L13.418 14.2553C12.0557 15.6176 9.88277 15.726 8.39169 14.506L7.85189 14.0644Z" fill="#E93D07"/>
</svg>
