<svg width="25" height="25" viewBox="0 0 25 25" fill="none" xmlns="http://www.w3.org/2000/svg">
<path fill-rule="evenodd" clip-rule="evenodd" d="M8.66266 0H16.3373C23.3416 0 25 1.65843 25 8.66265V16.3373C25 23.3416 23.3416 25 16.3373 25H8.66266C1.65843 25 0 23.3416 0 16.3373V8.66265C0 1.65843 1.65843 0 8.66266 0Z" fill="#4680C2"/>
<path fill-rule="evenodd" clip-rule="evenodd" d="M20.4328 7.97976C20.5563 7.59163 20.4328 7.30934 19.8859 7.30934H18.0686C17.6099 7.30934 17.3982 7.55632 17.2747 7.82101C17.2747 7.82101 16.3396 10.0793 15.034 11.5436C14.6106 11.9671 14.4165 12.1082 14.1872 12.1082C14.0637 12.1082 13.9049 11.9671 13.9049 11.5789V7.9621C13.9049 7.50341 13.7638 7.29169 13.3756 7.29169H10.5175C10.2352 7.29169 10.0588 7.50341 10.0588 7.71512C10.0588 8.15622 10.7115 8.26205 10.7821 9.49705V12.1788C10.7821 12.761 10.6763 12.8668 10.4469 12.8668C9.8294 12.8668 8.32976 10.5909 7.42997 7.99742C7.25351 7.48575 7.0771 7.29169 6.61841 7.29169H4.78351C4.25423 7.29169 4.16602 7.53872 4.16602 7.80335C4.16602 8.27971 4.78351 10.6791 7.04179 13.8549C8.54148 16.0249 10.6763 17.1893 12.5993 17.1893C13.7638 17.1893 13.9049 16.9247 13.9049 16.4837V14.8429C13.9049 14.3136 14.0108 14.2254 14.3813 14.2254C14.6459 14.2254 15.1223 14.3665 16.1985 15.4074C17.4335 16.6424 17.6452 17.207 18.3333 17.207H20.1505C20.6798 17.207 20.9268 16.9424 20.7857 16.4307C20.6268 15.9191 20.027 15.1781 19.2507 14.2959C18.8273 13.8019 18.1921 13.255 17.998 12.9903C17.7334 12.6375 17.804 12.4964 17.998 12.1788C17.9804 12.1788 20.2034 9.03835 20.4328 7.97976Z" fill="white"/>
</svg>
