<svg width="25" height="25" viewBox="0 0 25 25" fill="none" xmlns="http://www.w3.org/2000/svg">
<path d="M0 12.5C0 5.59644 5.59644 0 12.5 0C19.4036 0 25 5.59644 25 12.5C25 19.4036 19.4036 25 12.5 25C5.59644 25 0 19.4036 0 12.5Z" fill="#FF0000"/>
<path d="M18.8887 9.41316C18.7353 8.82409 18.2835 8.36023 17.7098 8.2028C16.6701 7.91669 12.5007 7.91669 12.5007 7.91669C12.5007 7.91669 8.33118 7.91669 7.29141 8.2028C6.7177 8.36023 6.26588 8.82409 6.11255 9.41316C5.83398 10.4808 5.83398 12.7084 5.83398 12.7084C5.83398 12.7084 5.83398 14.9359 6.11255 16.0036C6.26588 16.5926 6.7177 17.0565 7.29141 17.214C8.33118 17.5 12.5007 17.5 12.5007 17.5C12.5007 17.5 16.6701 17.5 17.7098 17.214C18.2835 17.0565 18.7353 16.5926 18.8887 16.0036C19.1673 14.9359 19.1673 12.7084 19.1673 12.7084C19.1673 12.7084 19.1673 10.4808 18.8887 9.41316Z" fill="white"/>
<path d="M11.25 15V10.8333L14.5833 12.9167L11.25 15Z" fill="#FF0000"/>
</svg>
